<svg xmlns="http://www.w3.org/2000/svg" aria-label="Wiki Commons logo" width="24" height="24" role="img" class="icon24 logo"><path style="fill:currentcolor" d="M11.405 1.3c-.013.047-.938 3.497-2.067 4.78-.166.189-.217.29-.183.326.094.082.701-.201 1.462-.47.447 1.78 1.494 2.807 2.524 3.327 1.057.533 1.926.739 2.567 1.254l-.52.52-.595-.596-.583 2.157 2.155-.586-.574-.574.525-.524a5.5 5.5 0 0 1 1.414 3.424h-.75v-.844l-1.937 1.111 1.937 1.112v-.812h.748a5.5 5.5 0 0 1-1.426 3.41l-.532-.52.595-.594-2.156-.584.584 2.155.576-.574.53.519a5.5 5.5 0 0 1-3.401 1.418v-.749h.81l-1.11-1.937-1.11 1.937h.843v.75a5.5 5.5 0 0 1-3.425-1.414l.524-.523.574.574.586-2.156-2.157.584.595.595-.524.525a5.5 5.5 0 0 1-1.432-3.415h.746v.811l1.939-1.111-1.94-1.111v.842h-.746a5.5 5.5 0 0 1 1.415-3.425l.522.526-.574.574 2.157.586-.586-2.157-.595.596c-.878-.884-1.087-1.086-2.082-2.054-.054.054-.13.133-.205.212l-.133.137-.039.04c-2.793 3.013-2.725 7.75.203 10.68 2.998 2.998 7.894 2.998 10.892 0s2.998-7.892 0-10.89h-.002C16.272 7.99 14.92 7.73 14.12 7.326c-.689-.348-1.126-.615-1.387-1.798.392.029.74.152.997.423 1.388 1.465-2.287-4.589-2.325-4.651M12 12.022a2.583 2.583 0 0 0-2.584 2.584A2.583 2.583 0 0 0 12 17.19a2.583 2.583 0 0 0 2.584-2.584A2.583 2.583 0 0 0 12 12.022"/></svg>